<svg width="32" height="32" viewBox="0 0 32 32" fill="none" xmlns="http://www.w3.org/2000/svg">
<path fill-rule="evenodd" clip-rule="evenodd" d="M16.5482 3.36499C16.2555 3.15337 15.8609 3.15253 15.5674 3.3629L3.55398 11.9723C3.33292 12.1308 3.20172 12.3865 3.20172 12.6591V29.3972C3.20172 29.7301 2.9327 30 2.60086 30C2.26901 30 2 29.7301 2 29.3972V12.6591C2 11.9972 2.31863 11.376 2.8555 10.9912L14.8689 2.38179C15.5818 1.87088 16.54 1.87292 17.2508 2.38686L29.1516 10.9924C29.6843 11.3776 30 11.9963 30 12.6552V29.3972C30 29.7301 29.731 30 29.3991 30C29.0673 30 28.7983 29.7301 28.7983 29.3972V12.6552C28.7983 12.3839 28.6683 12.1292 28.4489 11.9705L16.5482 3.36499ZM13.5365 18.3047C13.0719 18.3047 12.6953 18.6826 12.6953 19.1487V29.3972C12.6953 29.7301 12.4263 30 12.0944 30C11.7626 30 11.4936 29.7301 11.4936 29.3972V19.1487C11.4936 18.0167 12.4082 17.099 13.5365 17.099H18.3433C19.4716 17.099 20.3863 18.0167 20.3863 19.1487V29.3972C20.3863 29.7301 20.1173 30 19.7854 30C19.4536 30 19.1845 29.7301 19.1845 29.3972V19.1487C19.1845 18.6826 18.8079 18.3047 18.3433 18.3047H13.5365Z" fill="#0D1B2A"/>
</svg>
