<svg width="32" height="32" viewBox="0 0 32 32" fill="none" xmlns="http://www.w3.org/2000/svg">
<path fill-rule="evenodd" clip-rule="evenodd" d="M12.875 13.8963C12.4862 13.1553 11.8961 12.3161 11.1448 11.6092C10.022 10.553 8.46797 9.73066 6.63445 10.0826C4.42725 10.5063 2.93677 11.9853 2.32111 14.0109C1.71153 16.0165 1.96346 18.5278 3.13157 21.0867C3.87626 22.718 5.33985 24.3594 7.03878 25.8619C8.74633 27.3719 10.731 28.7757 12.5661 29.9252C12.6621 29.9853 12.7706 30.0081 12.875 29.9975C12.9794 30.0081 13.0879 29.9853 13.1839 29.9252C15.019 28.7757 17.0037 27.3719 18.7112 25.8619C20.4101 24.3594 21.8737 22.718 22.6184 21.0867C23.7865 18.5278 24.0385 16.0165 23.4289 14.0109C22.8132 11.9853 21.3227 10.5063 19.1155 10.0826C17.282 9.73066 15.728 10.553 14.6052 11.6092C13.8539 12.3161 13.2638 13.1553 12.875 13.8963ZM12.875 15.5239C12.6474 15.5472 12.4272 15.4071 12.3563 15.1784C12.1367 14.4703 11.471 13.2724 10.4734 12.3339C9.48111 11.4004 8.23141 10.7852 6.81853 11.0564C4.9923 11.407 3.77741 12.6046 3.26174 14.3012C2.73998 16.0179 2.93074 18.2746 4.02531 20.6724C4.68348 22.1142 6.02362 23.6451 7.68767 25.1167C9.27893 26.524 11.1309 27.8462 12.875 28.9507C14.6191 27.8462 16.4711 26.524 18.0623 25.1167C19.7264 23.6451 21.0665 22.1142 21.7247 20.6724C22.8193 18.2746 23.01 16.0179 22.4883 14.3012C21.9726 12.6046 20.7577 11.407 18.9315 11.0564C17.5186 10.7852 16.2689 11.4004 15.2766 12.3339C14.279 13.2724 13.6133 14.4703 13.3937 15.1784C13.3228 15.4071 13.1026 15.5472 12.875 15.5239Z" fill="#0D1B2A"/>
<path d="M18.875 5.8963C18.4862 5.15535 17.8961 4.3161 17.1447 3.60924C16.0219 2.55299 14.4679 1.73066 12.6344 2.0826C10.4272 2.50626 8.93674 3.9853 8.32108 6.01092C8.06497 6.85356 7.96093 7.78546 8.01302 8.77264C8.35843 8.80429 8.6914 8.8669 9.01103 8.95462C8.93366 7.98278 9.0233 7.08564 9.26171 6.30124C9.77738 4.60458 10.9923 3.40698 12.8185 3.05644C14.2314 2.78524 15.4811 3.40037 16.4734 4.33389C17.471 5.27237 18.1367 6.47034 18.3563 7.17843C18.4272 7.40709 18.6473 7.54716 18.875 7.52387C19.1026 7.54716 19.3227 7.40709 19.3937 7.17843C19.6132 6.47034 20.279 5.27237 21.2765 4.33389C22.2689 3.40037 23.5186 2.78524 24.9314 3.05644C26.7577 3.40698 27.9726 4.60458 28.4882 6.30124C29.01 8.0179 28.8192 10.2746 27.7247 12.6724C27.1954 13.8318 26.2252 15.0488 25.0002 16.2463C25.0018 16.7183 24.9707 17.1994 24.9078 17.6864C26.5226 16.2321 27.9026 14.6548 28.6184 13.0867C29.7865 10.5278 30.0384 8.01653 29.4289 6.01092C28.8132 3.9853 27.3227 2.50626 25.1155 2.0826C23.282 1.73066 21.728 2.55299 20.6052 3.60924C19.8538 4.3161 19.2637 5.15535 18.875 5.8963Z" fill="#0D1B2A"/>
</svg>
