<svg width="32" height="32" viewBox="0 0 32 32" fill="none" xmlns="http://www.w3.org/2000/svg">
<path d="M12.625 25.75C12.625 25.4048 12.3452 25.125 12 25.125C11.6548 25.125 11.375 25.4048 11.375 25.75C11.375 28.1854 13.4092 30.125 15.875 30.125C18.3408 30.125 20.375 28.1854 20.375 25.75C20.375 25.4048 20.0952 25.125 19.75 25.125C19.4048 25.125 19.125 25.4048 19.125 25.75C19.125 27.4567 17.6894 28.875 15.875 28.875C14.0606 28.875 12.625 27.4567 12.625 25.75Z" fill="#0D1B2A"/>
<path fill-rule="evenodd" clip-rule="evenodd" d="M19.1931 5.33668C22.1561 6.56244 24.2841 9.38037 24.4943 12.7148C24.4945 12.7193 24.4983 12.7229 24.5028 12.7229C24.5075 12.7229 24.5114 12.7267 24.5114 12.7314V17.0273C24.5114 17.6918 24.8878 18.299 25.483 18.5946L26.7784 19.238C27.3736 19.5336 27.75 20.1408 27.75 20.8053V22.5C27.75 23.4665 26.9665 24.25 26 24.25H5.75C4.7835 24.25 4 23.4665 4 22.5V20.8053C4 20.1408 4.3764 19.5336 4.97159 19.238L6.26704 18.5946C6.86223 18.299 7.23864 17.6918 7.23864 17.0273V12.7314C7.23864 12.7267 7.24247 12.7229 7.24719 12.7229C7.25171 12.7229 7.25545 12.7193 7.25573 12.7148C7.46589 9.38037 9.59392 6.56244 12.5569 5.33668C12.6052 5.3167 12.6364 5.26914 12.6364 5.21687C12.6364 3.44024 14.0864 2 15.875 2C17.6637 2 19.1136 3.44024 19.1136 5.21687C19.1136 5.26914 19.1448 5.3167 19.1931 5.33668ZM17.8636 5.21687C17.8636 5.76416 18.1897 6.27434 18.7152 6.49175C19.2764 6.72388 19.8021 7.02253 20.2827 7.37762C20.5238 7.55578 20.7535 7.74815 20.9705 7.95347C21.7336 8.67518 22.3406 9.55679 22.7376 10.5431C23.0207 11.2466 23.1969 12.0034 23.2467 12.7935C23.2495 12.8368 23.2544 12.8795 23.2614 12.9215V17.0273C23.2614 18.1665 23.9066 19.2074 24.927 19.7141L26.2224 20.3575C26.3925 20.442 26.5 20.6155 26.5 20.8053V22.5C26.5 22.7761 26.2761 23 26 23H5.75C5.47386 23 5.25 22.7761 5.25 22.5V20.8053C5.25 20.6155 5.35754 20.442 5.5276 20.3575L6.82305 19.7141C7.84337 19.2074 8.48864 18.1665 8.48864 17.0273V12.9214C8.49562 12.8794 8.50053 12.8367 8.50326 12.7935C8.6823 9.95273 10.4964 7.54182 13.0347 6.49175C13.5603 6.27434 13.8864 5.76415 13.8864 5.21687C13.8864 4.13853 14.7687 3.25 15.875 3.25C16.9813 3.25 17.8636 4.13853 17.8636 5.21687Z" fill="#0D1B2A"/>
</svg>
