<svg width="49" height="48" viewBox="0 0 49 48" fill="none" xmlns="http://www.w3.org/2000/svg">
<path d="M24.335 4C13.295 4 4.33496 12.96 4.33496 24C4.33496 35.04 13.295 44 24.335 44C35.375 44 44.335 35.04 44.335 24C44.335 12.96 35.375 4 24.335 4ZM24.335 37C22.675 37 21.335 35.66 21.335 34H27.335C27.335 35.66 25.995 37 24.335 37ZM34.335 32H14.335V30L16.335 28V22.78C16.335 18.54 18.395 14.94 22.335 14V13C22.335 11.86 23.195 11 24.335 11C25.475 11 26.335 11.86 26.335 13V14C30.275 14.94 32.335 18.56 32.335 22.78V28L34.335 30V32Z" fill="#D1F4E9"/>
</svg>
