<svg width="32" height="32" viewBox="0 0 32 32" fill="none" xmlns="http://www.w3.org/2000/svg">
<path fill-rule="evenodd" clip-rule="evenodd" d="M15.8213 16.0596C12.2679 16.0596 9.38725 13.179 9.38725 9.62553C9.38725 6.07211 12.2679 3.19149 15.8213 3.19149C19.3747 3.19149 22.2553 6.07211 22.2553 9.62553C22.2553 13.179 19.3747 16.0596 15.8213 16.0596ZM8.19576 9.62553C8.19576 5.41407 11.6098 2 15.8213 2C20.0327 2 23.4468 5.41407 23.4468 9.62553C23.4468 13.837 20.0327 17.2511 15.8213 17.2511C11.6098 17.2511 8.19576 13.837 8.19576 9.62553ZM3.19149 29.2585C3.19149 26.4918 4.14188 24.3314 6.13938 22.8401C8.16734 21.3261 11.3542 20.4415 15.9404 20.4415C20.5108 20.4415 23.7317 21.4389 25.7959 23.015C27.8404 24.576 28.8085 26.7475 28.8085 29.2585C28.8085 29.5875 29.0752 29.8543 29.4043 29.8543C29.7333 29.8543 30 29.5875 30 29.2585C30 26.4078 28.883 23.873 26.519 22.068C24.1747 20.2781 20.6636 19.25 15.9404 19.25C11.233 19.25 7.74756 20.1526 5.42658 21.8854C3.07514 23.6409 2 26.1869 2 29.2585C2 29.5875 2.26672 29.8543 2.59574 29.8543C2.92477 29.8543 3.19149 29.5875 3.19149 29.2585Z" fill="#0D1B2A"/>
</svg>
