<svg width="44" height="48" viewBox="0 0 44 48" fill="none" xmlns="http://www.w3.org/2000/svg">
<path d="M18.3727 0.882812C20.4115 -0.294273 22.9234 -0.29427 24.9621 0.882815L40.0401 9.58811C42.0789 10.7652 43.3348 12.9405 43.3348 15.2947V32.7053C43.3348 35.0595 42.0789 37.2348 40.0401 38.4119L24.9621 47.1172C22.9233 48.2943 20.4115 48.2943 18.3727 47.1172L3.2947 38.4119C1.25593 37.2348 0 35.0595 0 32.7053V15.2947C0 12.9405 1.25593 10.7652 3.2947 9.58811L18.3727 0.882812Z" fill="#D1F4E9"/>
<path fill-rule="evenodd" clip-rule="evenodd" d="M26.5793 15.6394C26.5793 16.3554 26.4304 17.0366 26.1619 17.6537C26.7225 18.1476 27.4584 18.4471 28.2642 18.4471C30.0216 18.4471 31.4463 17.0225 31.4463 15.2651C31.4463 13.5077 30.0216 12.0831 28.2642 12.0831C27.3312 12.0831 26.492 12.4846 25.91 13.1244C26.3358 13.865 26.5793 14.7238 26.5793 15.6394ZM16.4717 15.6394C16.4717 14.6267 16.7695 13.6836 17.2824 12.8929C16.7195 12.3893 15.9763 12.0831 15.1615 12.0831C13.4041 12.0831 11.9795 13.5077 11.9795 15.2651C11.9795 17.0225 13.4041 18.4471 15.1615 18.4471C15.8418 18.4471 16.4721 18.2336 16.9894 17.8701C16.6579 17.1973 16.4717 16.4401 16.4717 15.6394ZM21.5255 19.1958C23.4896 19.1958 25.0818 17.6036 25.0818 15.6395C25.0818 13.6753 23.4896 12.0831 21.5255 12.0831C19.5613 12.0831 17.9691 13.6753 17.9691 15.6395C17.9691 17.6036 19.5613 19.1958 21.5255 19.1958ZM28.332 24.452C27.5473 22.9217 26.5261 21.7004 25.4508 20.8107C26.3676 20.0939 27.328 19.7132 28.1109 19.6956L28.1109 19.6949L28.1392 19.6951L28.1675 19.6949L28.1675 19.6956C30.4921 19.7478 34.3824 23.0022 34.046 28.7455C34.0391 28.8634 34.0161 28.9815 33.9755 29.0986C33.2907 26.5506 31.0484 24.6405 28.332 24.452ZM26.6149 24.5657C25.2117 22.1588 23.0595 20.8534 21.5252 20.8187L21.5251 20.818L21.494 20.8182L21.4628 20.818L21.4628 20.8187C18.8968 20.8767 14.6026 24.4887 14.974 30.8632C15.0466 32.1106 16.7382 33.3874 21.4004 33.4206L21.4004 33.4213L21.494 33.4211L21.5875 33.4213L21.5875 33.4206C21.7907 33.4191 21.9881 33.4153 22.1801 33.4093C21.8001 32.5983 21.5877 31.6931 21.5877 30.7384C21.5877 27.6947 23.7456 25.155 26.6149 24.5657ZM17.7456 20.6392C15.4061 22.517 13.3025 26.0356 13.3219 30.9482C10.5111 30.6402 9.4343 29.6837 9.37935 28.7455C9.04294 23.0022 12.9332 19.7478 15.2579 19.6956L15.2579 19.6949L15.2862 19.6951L15.3144 19.6949L15.3144 19.6956C16.0324 19.7117 16.8996 20.0332 17.7456 20.6392ZM32.8183 30.7384C32.8183 33.4606 30.6115 35.6674 27.8893 35.6674C25.1671 35.6674 22.9603 33.4606 22.9603 30.7384C22.9603 28.0162 25.1671 25.8094 27.8893 25.8094C30.6115 25.8094 32.8183 28.0162 32.8183 30.7384ZM27.9512 29.5526C27.8054 29.3627 27.427 28.929 26.8284 28.929C26.0797 28.929 25.2062 29.4162 25.2062 30.3017C25.2062 31.8193 27.0149 32.9764 27.9509 33.5458V33.5461L27.9512 33.5459L27.9515 33.5461V33.5458C28.8875 32.9764 30.6962 31.8193 30.6962 30.3017C30.6962 29.4162 29.8227 28.929 29.074 28.929C28.4754 28.929 28.097 29.3627 27.9512 29.5526Z" fill="white"/>
</svg>
