<svg width="48" height="48" viewBox="0 0 48 48" fill="none" xmlns="http://www.w3.org/2000/svg">
<path d="M31 28H29.42L28.86 27.46C30.1098 26.0079 31.0233 24.2976 31.5351 22.4512C32.0468 20.6049 32.1441 18.6683 31.82 16.78C30.8799 11.22 26.2399 6.78001 20.6399 6.10001C18.6712 5.85094 16.6715 6.05555 14.794 6.69819C12.9165 7.34082 11.2108 8.40445 9.80761 9.80767C8.40439 11.2109 7.34076 12.9165 6.69813 14.7941C6.05549 16.6716 5.85088 18.6712 6.09995 20.64C6.77995 26.24 11.22 30.88 16.78 31.82C18.6683 32.1441 20.6049 32.0468 22.4512 31.5351C24.2975 31.0234 26.0079 30.1099 27.4599 28.86L28 29.42V31L36.5 39.5C37.32 40.32 38.66 40.32 39.4799 39.5C40.2999 38.68 40.2999 37.34 39.4799 36.52L31 28ZM18.9999 28C14.0199 28 9.99995 23.98 9.99995 19C9.99995 14.02 14.0199 10 18.9999 10C23.9799 10 28 14.02 28 19C28 23.98 23.9799 28 18.9999 28Z" fill="#D1F4E9"/>
</svg>
