<svg width="32" height="32" viewBox="0 0 32 32" fill="none" xmlns="http://www.w3.org/2000/svg">
<path fill-rule="evenodd" clip-rule="evenodd" d="M21.1515 12.179C21.1515 17.1315 17.1356 21.1463 12.1818 21.1463C7.22799 21.1463 3.21212 17.1315 3.21212 12.179C3.21212 7.22656 7.22799 3.21179 12.1818 3.21179C17.1356 3.21179 21.1515 7.22656 21.1515 12.179ZM19.0676 19.6774C17.255 21.342 14.8371 22.3581 12.1818 22.3581C6.55856 22.3581 2 17.8008 2 12.179C2 6.55731 6.55856 2 12.1818 2C17.8051 2 22.3636 6.55731 22.3636 12.179C22.3636 14.7101 21.4396 17.0254 19.9103 18.8062L29.8225 28.7157C30.0592 28.9523 30.0592 29.3359 29.8225 29.5725C29.5858 29.8092 29.2021 29.8092 28.9654 29.5725L19.0676 19.6774Z" fill="#0D1B2A"/>
</svg>
