<svg width="24" height="24" viewBox="0 0 24 24" fill="none" xmlns="http://www.w3.org/2000/svg">
<path d="M13 2.03003V4.05003C17.39 4.59003 20.5 8.58003 19.96 12.97C19.5 16.61 16.64 19.5 13 19.93V21.93C18.5 21.38 22.5 16.5 21.9501 11C21.5 6.25003 17.73 2.50003 13 2.03003ZM11 2.06003C9.05005 2.25003 7.19005 3.00003 5.67005 4.26003L7.10005 5.74003C8.22005 4.84003 9.57005 4.26003 11 4.06003V2.06003ZM4.26005 5.67003C3.0097 7.18737 2.24025 9.04311 2.05005 11H4.05005C4.24005 9.58003 4.80005 8.23003 5.69005 7.10003L4.26005 5.67003ZM2.06005 13C2.26005 14.96 3.03005 16.81 4.27005 18.33L5.69005 16.9C4.80698 15.7696 4.244 14.4226 4.06005 13H2.06005ZM7.10005 18.37L5.67005 19.74C7.18483 21.0027 9.03932 21.7891 11 22V20C9.57745 19.8161 8.23045 19.2531 7.10005 18.37ZM12.5 7.00003V12.25L17 14.92L16.25 16.15L11 13V7.00003H12.5Z" fill="#2EAB67"/>
</svg>
