<svg width="24" height="25" viewBox="0 0 24 25" fill="none" xmlns="http://www.w3.org/2000/svg">
<path d="M3 17.5H5.397C6.20092 17.4999 6.99298 17.306 7.70601 16.9347C8.41904 16.5634 9.03203 16.0256 9.493 15.367L9.67 15.114M13.33 9.887L13.507 9.633C13.968 8.97437 14.581 8.4366 15.294 8.06528C16.007 7.69397 16.7991 7.50006 17.603 7.5H21" stroke="#2EAB67" stroke-width="2" stroke-linecap="round" stroke-linejoin="round"/>
<path d="M18 4.5L21 7.5L18 10.5M3 7.5H5.397C6.20092 7.50006 6.99298 7.69397 7.70601 8.06528C8.41904 8.4366 9.03203 8.97437 9.493 9.633L13.507 15.367C13.968 16.0256 14.581 16.5634 15.294 16.9347C16.007 17.306 16.7991 17.4999 17.603 17.5H21" stroke="#2EAB67" stroke-width="2" stroke-linecap="round" stroke-linejoin="round"/>
<path d="M18 20.5L21 17.5L18 14.5" stroke="#2EAB67" stroke-width="2" stroke-linecap="round" stroke-linejoin="round"/>
</svg>
