<svg width="65" height="65" viewBox="0 0 65 65" fill="none" xmlns="http://www.w3.org/2000/svg">
<mask id="mask0_1_1045" style="mask-type:alpha" maskUnits="userSpaceOnUse" x="2" y="5" width="62" height="62">
<path d="M4.50598 63.3465C4.50814 63.5002 4.54053 63.6519 4.60133 63.793C4.66212 63.9341 4.75012 64.0619 4.8603 64.169C4.97048 64.2761 5.10068 64.3605 5.24347 64.4173C5.38626 64.4741 5.53883 64.5022 5.69248 64.5H60.303C60.4568 64.5024 60.6095 64.4744 60.7525 64.4177C60.8954 64.361 61.0258 64.2767 61.1361 64.1696C61.2465 64.0624 61.3346 63.9346 61.3955 63.7934C61.4564 63.6521 61.4888 63.5003 61.491 63.3465V61.9695C61.518 61.554 61.5735 59.484 60.2085 57.1935C59.3475 55.749 58.098 54.5025 56.4945 53.4855C54.555 52.2555 52.0875 51.366 49.1025 50.8305C47.5872 50.6173 46.0842 50.3249 44.5995 49.9545C40.6515 48.9465 40.3065 48.054 40.3035 48.045C40.2807 47.9569 40.2474 47.8718 40.2045 47.7915C40.1715 47.6265 40.092 46.9995 40.245 45.321C40.632 41.0565 42.9195 38.5365 44.757 36.5115C45.336 35.874 45.8835 35.2695 46.305 34.6785C48.1245 32.1285 48.2925 29.226 48.3 29.046C48.3068 28.7271 48.2628 28.4091 48.1695 28.104C47.9895 27.549 47.655 27.204 47.409 26.949C47.3508 26.8906 47.2943 26.8306 47.2395 26.769C47.2215 26.748 47.1735 26.691 47.217 26.4045C47.3641 25.4816 47.4657 24.5519 47.5215 23.619C47.6055 22.116 47.67 19.869 47.2815 17.6805C47.2244 17.2625 47.1382 16.849 47.0235 16.443C46.614 14.937 45.957 13.65 45.0435 12.588C44.886 12.4155 41.064 8.388 29.9685 7.563C28.434 7.449 26.9175 7.5105 25.4235 7.587C24.9817 7.59682 24.5419 7.6511 24.111 7.749C22.965 8.0445 22.659 8.7705 22.5795 9.177C22.446 9.852 22.68 10.374 22.8345 10.722C22.857 10.7715 22.8855 10.833 22.836 10.995C22.5795 11.394 22.173 11.754 21.7605 12.0945C21.6405 12.195 18.8595 14.595 18.7065 17.7285C18.294 20.112 18.324 23.8245 18.8115 26.391C18.8415 26.5335 18.882 26.7435 18.8145 26.886C18.2895 27.3555 17.6955 27.888 17.697 29.103C17.703 29.226 17.8725 32.127 19.692 34.6785C20.112 35.2695 20.6595 35.8725 21.237 36.51L21.24 36.5115C23.0775 38.5365 25.365 41.0565 25.752 45.3195C25.9035 46.9995 25.824 47.625 25.7925 47.7915C25.7489 47.8717 25.7152 47.9568 25.692 48.045C25.6905 48.054 25.347 48.9435 21.417 49.95C19.149 50.5305 16.917 50.8275 16.8495 50.835C13.9485 51.3255 11.496 52.194 9.55948 53.4165C7.96198 54.426 6.70948 55.677 5.83948 57.132C4.44748 59.457 4.48498 61.575 4.50448 61.962V63.3465H4.50598Z" fill="white" stroke="white" stroke-width="4" stroke-linejoin="round"/>
</mask>
<g mask="url(#mask0_1_1045)">
<path d="M-3 0H69V72H-3V0Z" fill="#8BE5C9"/>
</g>
</svg>
